<?xml version="1.0" encoding="utf-8"?>
<!-- Svg Vector Icons : http://www.onlinewebfonts.com/icon -->
<!DOCTYPE svg PUBLIC "-//W3C//DTD SVG 1.1//EN" "http://www.w3.org/Graphics/SVG/1.1/DTD/svg11.dtd">
<svg version="1.1" xmlns="http://www.w3.org/2000/svg" xmlns:xlink="http://www.w3.org/1999/xlink" x="0px" y="0px" viewBox="0 0 1000 1000" enable-background="new 0 0 1000 1000" xml:space="preserve">
<metadata> Svg Vector Icons : http://www.onlinewebfonts.com/icon </metadata>
<g><path d="M663.8,290.9c-20.5-7.9-53.5-11.9-99-11.9H443.3v442h123.5c38.1,0,68.1-3.5,89.7-10.6c21.7-7.1,39-17.1,51.9-30c18.2-18.2,32.3-42.5,42.4-73.2c10.2-30.6,15.2-67.8,15.2-111.5c0-60.5-10-107-29.8-139.4C716.3,323.7,692.3,302,663.8,290.9z"/><path d="M878.7,10H121.3C60.1,10,10,60.1,10,121.3v757.4C10,939.9,60.1,990,121.3,990h757.4c61.2,0,111.3-50.1,111.3-111.3V121.3C990.1,60.1,940,10,878.7,10z M231.7,789.3h-76.5V210.8h76.5V789.3z M829.5,613.7C819.2,647.6,806,675.8,790,698c-16.1,22.2-33.6,39.7-52.7,52.5c-19.1,12.7-42,22.4-69,29c-27,6.6-57.9,9.9-92.9,9.9H366.6V210.9h199.3c45,0,79.3,2.8,103,8.3c33.1,7.7,61.4,21.5,84.9,41.5c30.5,25.8,53.3,58.7,68.5,98.8c15.1,40.1,22.7,86,22.7,137.5C844.9,540.8,839.7,579.7,829.5,613.7z"/></g>
</svg>